HIERARCHY
ROOT hip
{
  OFFSET 0 0 0
  CHANNELS 6 Xposition Yposition Zposition Zrotation Yrotation Xrotation
  JOINT abdomen
  {
    OFFSET 0 20.6881 -0.73152
    CHANNELS 3 Zrotation Xrotation Yrotation
    JOINT chest
    {
      OFFSET 0 11.7043 -0.48768
      CHANNELS 3 Zrotation Xrotation Yrotation
      JOINT neck
      {
        OFFSET 0 22.1894 -2.19456
        CHANNELS 3 Zrotation Xrotation Yrotation
        JOINT head
        {
          OFFSET -0.24384 7.07133 1.2192
          CHANNELS 3 Zrotation Xrotation Yrotation
          JOINT leftEye
          {
            OFFSET 4.14528 8.04674 8.04672
            CHANNELS 3 Zrotation Xrotation Yrotation
            End Site
            {
              OFFSET 1 0 0
            }
          }
          JOINT rightEye
          {
            OFFSET -3.6576 8.04674 8.04672
            CHANNELS 3 Zrotation Xrotation Yrotation
            End Site
            {
              OFFSET 1 0 0
            }
          }
        }
      }
      JOINT rCollar
      {
        OFFSET -2.68224 19.2634 -4.8768
        CHANNELS 3 Zrotation Xrotation Yrotation
        JOINT rShldr
        {
          OFFSET -8.77824 -1.95073 1.46304
          CHANNELS 3 Zrotation Xrotation Yrotation
          JOINT rForeArm
          {
            OFFSET -28.1742 -1.7115 0.48768
            CHANNELS 3 Zrotation Xrotation Yrotation
            JOINT rHand
            {
              OFFSET -22.5879 0.773209 7.07136
              CHANNELS 3 Zrotation Xrotation Yrotation
              JOINT rThumb1
              {
                OFFSET -1.2192 -0.487915 3.41376
                CHANNELS 3 Zrotation Xrotation Yrotation
                JOINT rThumb2
                {
                  OFFSET -3.37035 -0.52449 3.41376
                  CHANNELS 3 Zrotation Xrotation Yrotation
                  End Site
                  {
                    OFFSET -1.78271 -1.18214 1.43049
                  }
                }
              }
              JOINT rIndex1
              {
                OFFSET -7.75947 0.938293 5.60832
                CHANNELS 3 Zrotation Xrotation Yrotation
                JOINT rIndex2
                {
                  OFFSET -2.54057 -0.884171 1.56538
                  CHANNELS 3 Zrotation Xrotation Yrotation
                  End Site
                  {
                    OFFSET -1.62519 -0.234802 1.16502
                  }
                }
              }
              JOINT rMid1
              {
                OFFSET -8.24714 1.18213 3.41376
                CHANNELS 3 Zrotation Xrotation Yrotation
                JOINT rMid2
                {
                  OFFSET -3.10165 -0.590103 1.0647
                  CHANNELS 3 Zrotation Xrotation Yrotation
                  End Site
                  {
                    OFFSET -2.48547 -0.328903 0.83742
                  }
                }
              }
              JOINT rRing1
              {
                OFFSET -8.82822 0.546677 1.51678
                CHANNELS 3 Zrotation Xrotation Yrotation
                JOINT rRing2
                {
                  OFFSET -2.60934 -0.819778 -0.0198488
                  CHANNELS 3 Zrotation Xrotation Yrotation
                  End Site
                  {
                    OFFSET -2.33842 -0.294052 0.168128
                  }
                }
              }
              JOINT rPinky1
              {
                OFFSET -8.27202 -0.0477905 -0.4584
                CHANNELS 3 Zrotation Xrotation Yrotation
                JOINT rPinky2
                {
                  OFFSET -1.82734 -0.647385 -0.700984
                  CHANNELS 3 Zrotation Xrotation Yrotation
                  End Site
                  {
                    OFFSET -1.69225 -0.51767 -0.607171
                  }
                }
              }
            }
          }
        }
      }
      JOINT lCollar
      {
        OFFSET 2.68224 19.2634 -4.8768
        CHANNELS 3 Zrotation Xrotation Yrotation
        JOINT lShldr
        {
          OFFSET 8.77824 -1.95073 1.46304
          CHANNELS 3 Zrotation Xrotation Yrotation
          JOINT lForeArm
          {
            OFFSET 28.1742 -1.7115 0.48768
            CHANNELS 3 Zrotation Xrotation Yrotation
            JOINT lHand
            {
              OFFSET 22.5879 0.773209 7.07136
              CHANNELS 3 Zrotation Xrotation Yrotation
              JOINT lThumb1
              {
                OFFSET 1.2192 -0.487915 3.41376
                CHANNELS 3 Zrotation Xrotation Yrotation
                JOINT lThumb2
                {
                  OFFSET 3.37035 -0.52449 3.41376
                  CHANNELS 3 Zrotation Xrotation Yrotation
                  End Site
                  {
                    OFFSET 1.78271 -1.18214 1.43049
                  }
                }
              }
              JOINT lIndex1
              {
                OFFSET 7.75947 0.938293 5.60832
                CHANNELS 3 Zrotation Xrotation Yrotation
                JOINT lIndex2
                {
                  OFFSET 2.54057 -0.884171 1.56538
                  CHANNELS 3 Zrotation Xrotation Yrotation
                  End Site
                  {
                    OFFSET 1.62519 -0.234802 1.16502
                  }
                }
              }
              JOINT lMid1
              {
                OFFSET 8.24714 1.18213 3.41376
                CHANNELS 3 Zrotation Xrotation Yrotation
                JOINT lMid2
                {
                  OFFSET 3.10165 -0.590103 1.0647
                  CHANNELS 3 Zrotation Xrotation Yrotation
                  End Site
                  {
                    OFFSET 2.48547 -0.328903 0.83742
                  }
                }
              }
              JOINT lRing1
              {
                OFFSET 8.82822 0.546677 1.51678
                CHANNELS 3 Zrotation Xrotation Yrotation
                JOINT lRing2
                {
                  OFFSET 2.60934 -0.819778 -0.0198488
                  CHANNELS 3 Zrotation Xrotation Yrotation
                  End Site
                  {
                    OFFSET 2.33842 -0.294052 0.168128
                  }
                }
              }
              JOINT lPinky1
              {
                OFFSET 8.27202 -0.0477905 -0.4584
                CHANNELS 3 Zrotation Xrotation Yrotation
                JOINT lPinky2
                {
                  OFFSET 1.82734 -0.647385 -0.700984
                  CHANNELS 3 Zrotation Xrotation Yrotation
                  End Site
                  {
                    OFFSET 1.69225 -0.51767 -0.607171
                  }
                }
              }
            }
          }
        }
      }
    }
  }
  JOINT rButtock
  {
    OFFSET -8.77824 4.35084 1.2192
    CHANNELS 3 Zrotation Xrotation Yrotation
    JOINT rThigh
    {
      OFFSET 0 -1.70687 -2.19456
      CHANNELS 3 Zrotation Xrotation Yrotation
      JOINT rShin
      {
        OFFSET 0 -36.8199 0.73152
        CHANNELS 3 Zrotation Xrotation Yrotation
        JOINT rFoot
        {
          OFFSET 0.73152 -45.1104 -5.12064
          CHANNELS 3 Zrotation Xrotation Yrotation
          End Site
          {
            OFFSET -1.1221 -3.69964 12.103
          }
        }
      }
    }
  }
  JOINT lButtock
  {
    OFFSET 8.77824 4.35084 1.2192
    CHANNELS 3 Zrotation Xrotation Yrotation
    JOINT lThigh
    {
      OFFSET 0 -1.70687 -2.19456
      CHANNELS 3 Zrotation Xrotation Yrotation
      JOINT lShin
      {
        OFFSET 0 -36.8199 0.73152
        CHANNELS 3 Zrotation Xrotation Yrotation
        JOINT lFoot
        {
          OFFSET -0.73152 -45.1104 -5.12064
          CHANNELS 3 Zrotation Xrotation Yrotation
          End Site
          {
            OFFSET 1.1221 -3.69964 12.103
          }
        }
      }
    }
  }
}
MOTION
Frames:	7
Frame Time:	0.00833333
-166.019 85.2982 6.1314 0.0 0.0 0.0 0.984358 -0.00436092 0.0272515 0.271546 -0.00455343 0.0470447 -1.55062e-14 7.95139e-16 -1.86361e-16 -4.6528e-14 9.54166e-15 -5.76165e-16 -0.0 0.0 0.0 -0.0 0.0 0.0 -7.55542e-15 -4.65902e-18 4.96962e-17 -1.61889e-13 6.21202e-17 -1.78906e-15 -2.80485e-12 8.37281e-13 0.0 -3.20729e-11 -8.52985e-13 -4.42097e-13 -7.56592e-11 -3.64862e-14 -9.41444e-13 -1.30669e-10 -6.99722e-14 -1.62606e-12 -7.56551e-11 -3.77691e-14 -9.50986e-13 7.73091 5.47488 0.417314 -7.56607e-11 -3.69739e-14 -9.35083e-13 2.90554 0.965183 0.102902 -7.56551e-11 -3.63776e-14 -9.39854e-13 10.2786 0.731801 0.0259123 -7.56666e-11 -3.37934e-14 -9.31903e-13 2.22167 -0.733487 -0.20892 -7.75152e-15 -2.32951e-18 -2.48481e-16 -1.64613e-13 4.34841e-17 -3.37934e-15 -2.79998e-12 -8.42847e-13 -2.54444e-14 -3.2085e-11 8.24012e-13 -4.13472e-13 -7.56699e-11 -4.63914e-14 -9.41444e-13 -1.30672e-10 -8.5875e-14 -1.61254e-12 -7.56729e-11 -4.49253e-14 -9.22361e-13 -7.73091 5.47488 -0.417314 -7.56681e-11 -4.69132e-14 -9.41444e-13 -2.90554 0.965183 -0.102902 -7.56692e-11 -4.64162e-14 -9.37469e-13 -10.2786 0.731801 -0.0259123 -7.56622e-11 -4.45278e-14 -9.44625e-13 -2.22167 -0.733487 0.20892 -2.03217e-16 0.0 -3.88251e-19 1.24879 -5.45298 -0.109162 6.94301e-05 4.32234 0.023882 -0.510643 1.12951 0.0812307 2.03217e-16 0.0 3.88251e-19 0.24964 -1.91924 0.0129237 0.00928388 -2.07855 0.0766863 0.496286 3.99654 -0.13795
-160.037 83.8314 -3.94272 164.051 75.071 168.362 -0.534753 -1.74461 1.01579 0.735673 1.70915 0.334987 4.45968 3.11576 4.54402 -6.44069 0.92356 9.56294 -0.0 0.0 0.0 -0.0 0.0 0.0 5.91036e-15 3.00547e-14 3.46631e-15 22.8252 7.1896 1.67686 -3.18897 -1.29083 5.13936 0.00374777 -1.36078 -0.191052 -1.26866e-10 -5.08174e-11 2.42224e-10 -2.19786e-10 -8.82762e-11 4.18714e-10 -1.26863e-10 -5.08171e-11 2.42218e-10 7.73091 5.47488 0.417314 -1.26872e-10 -5.08169e-11 2.42233e-10 2.90554 0.965183 0.102902 -1.26863e-10 -5.08155e-11 2.42225e-10 10.2786 0.731801 0.0259123 -1.26872e-10 -5.0813e-11 2.42231e-10 2.22167 -0.733487 -0.20892 5.75152e-15 3.00571e-14 3.19764e-15 -23.1176 4.18071 -3.25977 1.88425 -0.637054 -3.14007 -0.00939453 2.17483 -0.304884 -1.64497e-10 3.8537e-10 -5.38895e-11 -2.84695e-10 6.6836e-10 -9.15011e-11 -1.645e-10 3.85372e-10 -5.3872e-11 -7.73091 5.47488 -0.417314 -1.64495e-10 3.85371e-10 -5.38856e-11 -2.90554 0.965183 -0.102902 -1.64499e-10 3.8537e-10 -5.38845e-11 -10.2786 0.731801 -0.0259123 -1.64491e-10 3.85371e-10 -5.38892e-11 -2.22167 -0.733487 0.20892 -2.03217e-16 0.0 -3.88251e-19 -0.983711 -7.09469 -0.373061 0.0500958 10.7428 0.214994 -1.70231 -6.56853 -7.08951 2.03217e-16 0.0 3.88251e-19 -0.255496 -4.81694 -1.69223 -0.0180675 5.11196 -0.0824144 0.838993 -1.50404 3.25158
-160.045 83.8236 -3.92681 164.22 75.1091 168.58 -2.07811 -3.5828 2.06619 1.20778 3.52127 0.640957 8.64047 6.34484 9.39084 -13.5866 1.81242 19.6781 -0.0 0.0 0.0 -0.0 0.0 0.0 2.00313e-14 5.60173e-14 7.03201e-15 46.4834 14.7627 3.53962 -6.30958 -2.6208 10.5809 -0.0021637 -2.78927 -0.391975 -1.98855e-10 -1.04259e-10 5.57174e-10 -3.45049e-10 -1.81138e-10 9.63128e-10 -1.98852e-10 -1.04257e-10 5.5717e-10 7.73091 5.47488 0.417314 -1.98865e-10 -1.04257e-10 5.57184e-10 2.90554 0.965183 0.102902 -1.98851e-10 -1.04255e-10 5.57174e-10 10.2786 0.731801 0.0259123 -1.98859e-10 -1.04252e-10 5.57178e-10 2.22167 -0.733487 -0.20892 1.99133e-14 5.60197e-14 6.79595e-15 -47.0535 8.38495 -6.79957 3.7604 -1.28442 -6.39652 0.00614917 4.51135 -0.633955 -2.46273e-10 8.29419e-10 -1.42695e-10 -4.26752e-10 1.43843e-09 -2.43282e-10 -2.46276e-10 8.29422e-10 -1.4268e-10 -7.73091 5.47488 -0.417314 -2.46272e-10 8.29421e-10 -1.42687e-10 -2.90554 0.965183 -0.102902 -2.46278e-10 8.2942e-10 -1.42689e-10 -10.2786 0.731801 -0.0259123 -2.46269e-10 8.2942e-10 -1.42691e-10 -2.22167 -0.733487 0.20892 -2.03217e-16 0.0 -3.88251e-19 -3.36616 -8.83239 -0.658894 0.0541862 17.5324 0.429293 -5.09149 -14.3224 -15.0469 2.03217e-16 0.0 3.88251e-19 -0.982745 -7.86911 -3.51428 -0.00277612 12.7105 -0.256136 1.91226 -7.27094 6.89088
-160.057 83.8142 -3.9186 164.227 75.1404 168.654 -3.39227 -5.21877 3.00393 1.61207 5.136 0.914094 11.896 9.11105 13.7892 -20.2048 2.46466 28.7141 -0.0 0.0 0.0 -0.0 0.0 0.0 3.28419e-14 9.01734e-14 1.02995e-14 67.1348 21.4921 5.36505 -8.88025 -3.74804 15.448 -0.0160402 -4.08217 -0.574452 -2.29281e-10 -1.52379e-10 7.28556e-10 -3.98019e-10 -2.64689e-10 1.25939e-09 -2.29278e-10 -1.52376e-10 7.28555e-10 7.73091 5.47488 0.417314 -2.29294e-10 -1.52377e-10 7.28569e-10 2.90554 0.965183 0.102902 -2.29277e-10 -1.52374e-10 7.28556e-10 10.2786 0.731801 0.0259123 -2.29283e-10 -1.52371e-10 7.28558e-10 2.22167 -0.733487 -0.20892 3.27576e-14 9.01759e-14 1.00899e-14 -67.9046 12.3779 -9.98771 5.44421 -1.88822 -9.4248 0.041635 6.52374 -0.91995 -3.42151e-10 1.1562e-09 -1.59785e-10 -5.9274e-10 2.00525e-09 -2.71278e-10 -3.42153e-10 1.15621e-09 -1.59771e-10 -7.73091 5.47488 -0.417314 -3.4215e-10 1.15621e-09 -1.59774e-10 -2.90554 0.965183 -0.102902 -3.42158e-10 1.1562e-09 -1.59778e-10 -10.2786 0.731801 -0.0259123 -3.42148e-10 1.1562e-09 -1.59778e-10 -2.22167 -0.733487 0.20892 -2.03217e-16 0.0 -3.88251e-19 -5.49483 -10.3773 -0.908132 0.0109384 23.5825 0.639456 -10.037 -20.5347 -22.8137 2.03217e-16 0.0 3.88251e-19 -1.7904 -10.5763 -5.1727 0.0521879 19.4925 -0.423823 3.50002 -12.3184 10.2654
-160.058 83.8107 -3.90819 164.43 75.1486 168.869 -4.26191 -6.35526 3.64949 1.88372 6.2578 1.10209 13.8847 10.9449 16.9164 -24.9021 2.81529 35.0281 -0.0 0.0 0.0 -0.0 0.0 0.0 4.23766e-14 1.44813e-13 1.28216e-14 81.2401 26.1848 6.78176 -10.5571 -4.48695 18.8506 -0.0312094 -5.03628 -0.709649 -1.558e-10 -1.87198e-10 5.41022e-10 -2.70256e-10 -3.2496e-10 9.35281e-10 -1.55797e-10 -1.87194e-10 5.41022e-10 7.73091 5.47488 0.417314 -1.55815e-10 -1.87195e-10 5.41035e-10 2.90554 0.965183 0.102902 -1.55796e-10 -1.87192e-10 5.41021e-10 10.2786 0.731801 0.0259123 -1.55801e-10 -1.8719e-10 5.41022e-10 2.22167 -0.733487 -0.20892 4.23085e-14 1.44816e-13 1.26228e-14 -82.0001 15.9923 -12.1344 6.77595 -2.40093 -11.8792 0.073785 7.7266 -1.0926 -4.73281e-10 1.18982e-09 2.41404e-12 -8.18558e-10 2.06396e-09 1.01849e-11 -4.73284e-10 1.18982e-09 2.42676e-12 -7.73091 5.47488 -0.417314 -4.7328e-10 1.18982e-09 2.42676e-12 -2.90554 0.965183 -0.102902 -4.7329e-10 1.18982e-09 2.42199e-12 -10.2786 0.731801 -0.0259123 -4.73279e-10 1.18982e-09 2.42358e-12 -2.22167 -0.733487 0.20892 -2.03217e-16 0.0 -3.88251e-19 -6.95498 -11.4408 -1.05983 -0.0488456 27.7846 0.801609 -14.5964 -24.2667 -28.744 2.03217e-16 0.0 3.88251e-19 -2.42737 -12.4541 -6.35965 0.11655 24.2335 -0.552658 4.96869 -15.7568 12.7202
-160.046 83.8156 -3.9011 164.832 75.1033 169.209 -4.56753 -6.79638 3.87523 1.98904 6.68935 1.16743 14.5492 11.6294 18.1677 -26.658 2.93686 37.5227 -0.0 0.0 0.0 -0.0 0.0 0.0 4.66756e-14 2.46734e-13 2.03405e-14 86.6769 28.0944 7.3802 -11.1886 -4.76416 20.1852 -0.0401358 -5.53776 -0.780889 1.4134e-10 -2.31881e-10 -3.68774e-10 2.46285e-10 -4.01858e-10 -6.37093e-10 1.41343e-10 -2.31877e-10 -3.68774e-10 7.73091 5.47488 0.417314 1.41328e-10 -2.31878e-10 -3.68764e-10 2.90554 0.965183 0.102902 1.41346e-10 -2.31875e-10 -3.68776e-10 10.2786 0.731801 0.0259123 1.41341e-10 -2.31874e-10 -3.68776e-10 2.22167 -0.733487 -0.20892 4.65943e-14 2.46736e-13 2.0125e-14 -87.0755 19.3744 -12.657 7.72563 -2.82732 -13.6299 0.0822928 7.87984 -1.11499 -7.38988e-10 7.55481e-10 6.09851e-10 -1.27478e-09 1.31169e-09 1.06082e-09 -7.38992e-10 7.55483e-10 6.09863e-10 -7.73091 5.47488 -0.417314 -7.38987e-10 7.55482e-10 6.09861e-10 -2.90554 0.965183 -0.102902 -7.38998e-10 7.55482e-10 6.0986e-10 -10.2786 0.731801 -0.0259123 -7.38987e-10 7.5548e-10 6.09862e-10 -2.22167 -0.733487 0.20892 -2.03217e-16 0.0 -3.88251e-19 -7.46048 -11.8293 -1.06557 -0.0791038 29.4003 0.869448 -16.6632 -25.5493 -31.2558 2.03217e-16 0.0 3.88251e-19 -2.65534 -13.1942 -6.84805 0.148544 26.1187 -0.60689 5.61212 -17.0848 13.6703
-160.044 83.8153 -3.89429 165.038 75.0949 169.405 -4.48319 -6.74201 3.79919 1.97913 6.628 1.14464 14.3743 11.5389 18.052 -26.2672 2.95047 37.2868 -0.0 0.0 0.0 -0.0 0.0 0.0 4.72659e-14 3.81541e-13 3.11409e-14 86.0563 28.033 7.31495 -11.1193 -4.73511 20.0378 -0.0424234 -5.71496 -0.806029 5.94515e-10 -2.82254e-10 -1.784e-09 1.03406e-09 -4.88286e-10 -3.083e-09 5.94518e-10 -2.8225e-10 -1.78401e-09 7.73091 5.47488 0.417314 5.94508e-10 -2.82251e-10 -1.784e-09 2.90554 0.965183 0.102902 5.94524e-10 -2.82249e-10 -1.78401e-09 10.2786 0.731801 0.0259123 5.94517e-10 -2.82249e-10 -1.78401e-09 2.22167 -0.733487 -0.20892 4.71506e-14 3.81543e-13 3.08893e-14 -85.9199 22.6309 -11.9706 8.40932 -3.19311 -14.8728 0.0714714 7.27946 -1.02904 -1.09676e-09 -1.03702e-11 1.52607e-09 -1.8886e-09 -1.51263e-11 2.64486e-09 -1.09677e-09 -1.03688e-11 1.52608e-09 -7.73091 5.47488 -0.417314 -1.09676e-09 -1.03726e-11 1.52607e-09 -2.90554 0.965183 -0.102902 -1.09677e-09 -1.037e-11 1.52608e-09 -10.2786 0.731801 -0.0259123 -1.09676e-09 -1.03717e-11 1.52608e-09 -2.22167 -0.733487 0.20892 -2.03217e-16 0.0 -3.88251e-19 -7.28163 -11.7357 -0.966633 -0.0744121 29.1687 0.861536 -16.4967 -25.395 -31.107 2.03217e-16 0.0 3.88251e-19 -2.5506 -13.1282 -6.82561 0.14534 25.9642 -0.601231 5.5091 -16.9493 13.4837
